<svg xmlns="http://www.w3.org/2000/svg" viewBox="0 0 60 60">
  <path d="M 0 30 L 0 60 28.918 60 C 44.823 60, 58.548 59.727, 59.418 59.393 C 60.811 58.859, 61 55.273, 61 29.393 L 61 0 30.500 0 L 0 0 0 30 M 0.443 30.500 C 0.443 47, 0.580 53.890, 0.748 45.812 C 0.915 37.733, 0.916 24.233, 0.748 15.812 C 0.581 7.390, 0.444 14, 0.443 30.500 M 3 30.016 L 3 57.033 29.750 56.766 L 56.500 56.500 56.766 29.750 L 57.033 3 30.016 3 L 3 3 3 30.016 M 7 12 L 7 17.078 15.656 16.789 L 24.312 16.500 24.312 12 L 24.312 7.500 15.656 7.211 L 7 6.922 7 12 M 35.704 7.630 C 35.317 8.017, 35 10.283, 35 12.667 L 35 17 44.055 17 L 53.110 17 52.805 12.250 L 52.500 7.500 44.454 7.213 C 40.028 7.055, 36.091 7.242, 35.704 7.630 M 10 12 C 10 13.758, 10.667 14, 15.500 14 C 20.333 14, 21 13.758, 21 12 C 21 10.242, 20.333 10, 15.500 10 C 10.667 10, 10 10.242, 10 12 M 39 12 C 39 13.733, 39.667 14, 44 14 C 48.333 14, 49 13.733, 49 12 C 49 10.267, 48.333 10, 44 10 C 39.667 10, 39 10.267, 39 12 M 21 30 L 21 35.078 29.750 34.789 L 38.500 34.500 38.500 30 L 38.500 25.500 29.750 25.211 L 21 24.922 21 30 M 24 30 C 24 31.758, 24.667 32, 29.500 32 C 34.333 32, 35 31.758, 35 30 C 35 28.242, 34.333 28, 29.500 28 C 24.667 28, 24 28.242, 24 30 M 14.412 43.369 C 14.112 44.150, 14.009 46.524, 14.183 48.645 L 14.500 52.500 30 52.500 L 45.500 52.500 45.500 47.500 L 45.500 42.500 30.229 42.224 C 17.770 41.999, 14.857 42.209, 14.412 43.369 M 17 47.500 C 17 48.753, 19.056 49, 29.500 49 C 39.944 49, 42 48.753, 42 47.500 C 42 46.247, 39.944 46, 29.500 46 C 19.056 46, 17 46.247, 17 47.500 " stroke="none" fill="#DD1313" fill-rule="evenodd"></path>
</svg>