<svg viewBox="0 0 60 60" xmlns="http://www.w3.org/2000/svg">
	<path fill-rule="evenodd" fill="#FF0000" stroke="none" d="M 21.699 1.367 C 15.327 3.159, 9.227 7.637, 5.277 13.424 C -0.220 21.477, -1.395 29.939, 1.589 39.987 C 3.770 47.333, 12.297 55.941, 19.889 58.463 C 27.572 61.015, 38.218 60.234, 44.295 56.673 C 50.252 53.182, 56.311 46.167, 57.992 40.816 C 58.738 38.442, 59.720 36.072, 60.174 35.550 C 61.230 34.335, 61.264 22.719, 60.210 23.370 C 59.775 23.639, 58.615 21.594, 57.631 18.825 C 55.484 12.778, 48.722 5.649, 42.539 2.914 C 36.745 0.351, 27.698 -0.321, 21.699 1.367 M 25.344 4.095 C 15.381 5.938, 7.130 13.305, 4.361 22.830 C -0.835 40.705, 13.631 58.399, 32.074 56.727 C 43.411 55.699, 52.300 48.465, 55.510 37.655 C 57.381 31.355, 57.380 28.642, 55.505 22.328 C 51.846 10.008, 38.146 1.726, 25.344 4.095 M 22.500 9 C 22.840 9.550, 26.215 10, 30 10 C 33.785 10, 37.160 9.550, 37.500 9 C 37.893 8.365, 35.157 8, 30 8 C 24.843 8, 22.107 8.365, 22.500 9 M 15 16 C 15 16.622, 20.667 17, 30 17 C 39.333 17, 45 16.622, 45 16 C 45 15.378, 39.333 15, 30 15 C 20.667 15, 15 15.378, 15 16 M 15 23 C 15 23.622, 20.667 24, 30 24 C 39.333 24, 45 23.622, 45 23 C 45 22.378, 39.333 22, 30 22 C 20.667 22, 15 22.378, 15 23 M 0.320 30 C 0.320 33.575, 0.502 35.038, 0.723 33.250 C 0.945 31.462, 0.945 28.538, 0.723 26.750 C 0.502 24.962, 0.320 26.425, 0.320 30 M 15 30 C 15 30.622, 20.667 31, 30 31 C 39.333 31, 45 30.622, 45 30 C 45 29.378, 39.333 29, 30 29 C 20.667 29, 15 29.378, 15 30 M 15 37 C 15 37.622, 20.667 38, 30 38 C 39.333 38, 45 37.622, 45 37 C 45 36.378, 39.333 36, 30 36 C 20.667 36, 15 36.378, 15 37 M 15 44 C 15 44.622, 20.667 45, 30 45 C 39.333 45, 45 44.622, 45 44 C 45 43.378, 39.333 43, 30 43 C 20.667 43, 15 43.378, 15 44 M 22.500 51 C 22.107 51.635, 24.843 52, 30 52 C 35.157 52, 37.893 51.635, 37.500 51 C 37.160 50.450, 33.785 50, 30 50 C 26.215 50, 22.840 50.450, 22.500 51"></path>
</svg>