<svg viewBox="0 0 60 60" xmlns="http://www.w3.org/2000/svg">
	<path fill-rule="evenodd" fill="#E3173E" stroke="none" d="M 21.396 1.358 C -0.113 8.407, -7.004 35.333, 8.592 51.392 C 14.556 57.533, 21.281 60.370, 30 60.424 C 38.754 60.479, 44.403 58.341, 50.815 52.548 C 55.494 48.321, 59.993 40.011, 60.015 35.554 C 60.027 33.214, 60.257 32.851, 61 34 C 61.676 35.046, 61.938 33.531, 61.866 29 C 61.786 23.923, 61.596 23.157, 61 25.500 L 60.237 28.500 60.096 25.500 C 59.725 17.560, 51.335 6.681, 42.727 2.978 C 36.378 0.247, 26.968 -0.468, 21.396 1.358 M 24.500 3.938 C 17.438 5.665, 11.137 10.267, 6.653 16.973 C 4.294 20.500, 4.406 22.847, 6.829 20.655 C 11.526 16.404, 20.125 20.816, 21.507 28.188 C 23.375 38.143, 12.755 45.581, 5.723 39.242 C 4.030 37.717, 4.014 37.804, 5.385 41.070 C 7.722 46.639, 12.606 51.660, 18.481 54.534 C 27.818 59.103, 40.363 57.710, 47.525 51.310 C 50.090 49.018, 54.518 43.030, 55.306 40.788 C 55.871 39.182, 55.695 39.178, 52.454 40.723 C 49.236 42.258, 48.757 42.254, 45.445 40.675 C 38.595 37.409, 37.139 27.596, 42.650 21.844 C 45.760 18.597, 50.235 18.075, 53.764 20.547 C 55.812 21.982, 55.925 21.963, 55.307 20.297 C 52.547 12.859, 45.193 6.535, 36.758 4.347 C 31.118 2.884, 29.087 2.817, 24.500 3.938 M 27.936 21.750 C 23.188 34.622, 21.604 38.124, 20.163 38.946 C 18.854 39.692, 18.734 40.277, 19.602 41.697 C 20.823 43.694, 25 44.757, 25 43.070 C 25 42.440, 27.262 42, 30.500 42 C 33.525 42, 36 42.450, 36 43 C 36 44.630, 38.563 44.141, 40.345 42.171 C 42.435 39.862, 42.421 39.348, 40.250 38.757 C 39.090 38.442, 37.337 35.031, 35.050 28.641 C 31.463 18.617, 29.716 16.925, 27.936 21.750 M 8.221 23.558 C 6.997 24.415, 5.560 24.846, 5.028 24.517 C 3.770 23.740, 2.764 27.818, 3.176 32.022 C 3.404 34.345, 4.057 35.401, 5.381 35.591 C 6.415 35.740, 7.743 36.343, 8.331 36.931 C 10.010 38.610, 14.525 38.183, 16.345 36.171 C 18.765 33.498, 18.373 32.002, 15.250 31.985 C 13.738 31.976, 11.880 31.577, 11.122 31.096 C 8.923 29.703, 10.813 28, 14.559 28 C 18.477 28, 18.880 26.880, 16 24 C 13.597 21.597, 11.214 21.462, 8.221 23.558 M 45.736 23.250 C 43.482 24.961, 41.812 29.814, 42.593 32.382 C 44.177 37.594, 50.157 39.926, 53.038 36.454 C 53.743 35.604, 54.923 35.140, 55.660 35.423 C 56.689 35.818, 57 34.536, 57 29.910 C 57 26.153, 56.624 24.114, 56.002 24.499 C 55.453 24.838, 54.003 24.415, 52.779 23.558 C 50.090 21.675, 47.935 21.580, 45.736 23.250 M 0.320 30 C 0.320 33.575, 0.502 35.038, 0.723 33.250 C 0.945 31.462, 0.945 28.538, 0.723 26.750 C 0.502 24.962, 0.320 26.425, 0.320 30 M 28.494 29.642 C 27.601 31.764, 26.618 34.737, 26.310 36.250 C 25.763 38.934, 25.860 39, 30.375 39 C 32.919 39, 35 38.663, 34.999 38.250 C 34.999 37.378, 30.995 26.673, 30.470 26.142 C 30.276 25.945, 29.387 27.520, 28.494 29.642"></path>
</svg>