<svg viewBox="0 0 60 60" xmlns="http://www.w3.org/2000/svg">
	<path fill-rule="evenodd" fill="#A2CE4B" stroke="none" d="M 2.174 2.314 C 0.059 4.566, 0 5.323, -0 30.140 C -0 55.514, 0.012 55.663, 2.314 57.826 C 4.566 59.941, 5.324 60, 30.127 60 L 55.626 60 58.313 57.195 L 61 54.391 61 28.636 C 61 14.370, 60.614 3.121, 60.134 3.417 C 59.657 3.712, 58.462 3.063, 57.479 1.976 C 55.786 0.106, 54.318 0, 30.019 0 C 4.479 0, 4.338 0.012, 2.174 2.314 M 4.571 4.571 C 2.218 6.925, 2.218 53.075, 4.571 55.429 C 6.925 57.782, 53.075 57.782, 55.429 55.429 C 57.782 53.075, 57.782 6.925, 55.429 4.571 C 53.075 2.218, 6.925 2.218, 4.571 4.571 M 0.437 30 C 0.437 44.575, 0.577 50.537, 0.747 43.250 C 0.918 35.962, 0.918 24.037, 0.747 16.750 C 0.577 9.462, 0.437 15.425, 0.437 30 M 22.500 9 C 22.840 9.550, 26.215 10, 30 10 C 33.785 10, 37.160 9.550, 37.500 9 C 37.893 8.365, 35.157 8, 30 8 C 24.843 8, 22.107 8.365, 22.500 9 M 22.500 16 C 22.840 16.550, 26.215 17, 30 17 C 33.785 17, 37.160 16.550, 37.500 16 C 37.893 15.365, 35.157 15, 30 15 C 24.843 15, 22.107 15.365, 22.500 16 M 22 23 C 22 23.583, 25.333 24, 30 24 C 34.667 24, 38 23.583, 38 23 C 38 22.417, 34.667 22, 30 22 C 25.333 22, 22 22.417, 22 23 M 22 30 C 22 30.583, 25.333 31, 30 31 C 34.667 31, 38 30.583, 38 30 C 38 29.417, 34.667 29, 30 29 C 25.333 29, 22 29.417, 22 30 M 22 37 C 22 37.583, 25.333 38, 30 38 C 34.667 38, 38 37.583, 38 37 C 38 36.417, 34.667 36, 30 36 C 25.333 36, 22 36.417, 22 37 M 22.500 44 C 22.107 44.635, 24.843 45, 30 45 C 35.157 45, 37.893 44.635, 37.500 44 C 37.160 43.450, 33.785 43, 30 43 C 26.215 43, 22.840 43.450, 22.500 44 M 22.500 51 C 22.107 51.635, 24.843 52, 30 52 C 35.157 52, 37.893 51.635, 37.500 51 C 37.160 50.450, 33.785 50, 30 50 C 26.215 50, 22.840 50.450, 22.500 51"></path>
</svg>