<svg viewBox="0 0 60 60" xmlns="http://www.w3.org/2000/svg">
  <path fill-rule="evenodd" fill="inherit" stroke="none" d="M 19.324 1.638 C 13.617 3.660, 6.458 10.205, 3.203 16.377 C 0.580 21.349, 0.491 22.068, 0.174 40.750 L -0.153 60 8.340 60 C 14.104 60, 16.963 59.610, 17.237 58.788 C 17.554 57.839, 18.518 57.839, 21.687 58.788 C 26.576 60.253, 33.296 60.349, 37.929 59.020 C 40.209 58.366, 41.753 58.380, 42.575 59.062 C 43.265 59.635, 47.478 59.956, 52.153 59.792 L 60.500 59.500 60.773 41.177 C 60.956 28.877, 60.709 23.062, 60.023 23.486 C 59.460 23.834, 59 23.402, 59 22.526 C 59 19.267, 53.947 11.123, 49.492 7.202 C 46.960 4.973, 42.809 2.441, 40.266 1.575 C 34.571 -0.366, 24.896 -0.337, 19.324 1.638 M 20.463 4.591 C 14.715 6.632, 9.894 10.956, 6.466 17.144 C 3.548 22.413, 3.495 22.782, 3.167 39.750 L 2.835 57 8.417 57 L 14 57 14 42.212 C 14 28.865, 14.219 26.989, 16.250 22.962 C 18.672 18.159, 25.053 14, 30 14 C 34.947 14, 41.328 18.159, 43.750 22.962 C 45.781 26.989, 46 28.865, 46 42.212 L 46 57 51.599 57 L 57.198 57 56.842 39.750 C 56.493 22.816, 56.432 22.402, 53.527 17.144 C 51.899 14.199, 49.002 10.499, 47.090 8.922 C 40.277 3.307, 29.170 1.500, 20.463 4.591 M 26.333 18.108 C 18.358 20.390, 15.136 31.443, 20.564 37.894 C 28.076 46.821, 42 41.694, 42 30 C 42 23.043, 38.553 19.133, 31 17.521 C 30.175 17.345, 28.075 17.609, 26.333 18.108 M 0.415 42 C 0.415 52.175, 0.564 56.337, 0.745 51.250 C 0.927 46.162, 0.927 37.837, 0.745 32.750 C 0.564 27.662, 0.415 31.825, 0.415 42 M 17 46.991 L 17 53.923 22.182 55.461 C 28.678 57.390, 31.322 57.390, 37.818 55.461 L 43 53.923 43 46.889 L 43 39.855 40.438 41.870 C 34.284 46.711, 27.136 46.939, 20.601 42.504 L 17 40.060 17 46.991"></path>
</svg>