<svg viewBox="0 0 60 60" xmlns="http://www.w3.org/2000/svg">
  <path fill-rule="evenodd" fill="#FCC817" stroke="none" d="M 22.500 1.339 C 8.759 5.891, 0.737 16.418, 0.680 29.975 C 0.652 36.652, 3.575 45.572, 6.618 48.098 C 7.777 49.060, 7.323 50.010, 3.965 53.654 C 1.736 56.072, 0.184 58.489, 0.515 59.025 C 1.428 60.501, 59.723 60.330, 60.217 58.850 C 60.428 58.217, 58.870 56.079, 56.755 54.100 L 52.910 50.500 56.613 43.299 C 59.587 37.517, 60.327 34.955, 60.373 30.299 C 60.438 23.563, 57.230 15.609, 52.080 9.744 C 45.463 2.208, 31.691 -1.706, 22.500 1.339 M 25.147 4.078 C 12.516 6.553, 4 16.992, 4 30 C 4 36.623, 5.657 41.551, 9.642 46.775 L 12.223 50.158 9.611 52.884 C 8.175 54.383, 7 55.908, 7 56.273 C 7 56.638, 17.575 56.938, 30.500 56.940 C 43.425 56.942, 54 56.643, 54 56.277 C 54 55.910, 52.775 54.331, 51.278 52.768 C 48.989 50.379, 48.753 49.655, 49.792 48.214 C 55.859 39.805, 57.470 34.942, 56.696 27.378 C 55.116 11.962, 40.395 1.089, 25.147 4.078 M 24.390 15.432 C 14.064 19.926, 11.534 32.734, 19.413 40.613 C 25.869 47.069, 35.473 46.959, 41.698 40.358 C 53.046 28.326, 39.520 8.846, 24.390 15.432 M 25.270 18.449 C 21.313 20.210, 18.009 25.372, 18.004 29.800 C 17.995 37.133, 23.200 42, 31.050 42 C 34.422 42, 35.827 41.373, 38.541 38.659 C 42.627 34.573, 43.623 31.024, 42.106 25.960 C 40.086 19.216, 31.825 15.531, 25.270 18.449 M 0.195 30.500 C 0.215 32.150, 0.439 32.704, 0.693 31.731 C 0.947 30.758, 0.930 29.408, 0.656 28.731 C 0.382 28.054, 0.175 28.850, 0.195 30.500"></path>
</svg>