<svg viewBox="0 0 60 60" xmlns="http://www.w3.org/2000/svg">
	<path fill-rule="evenodd" fill="#00FF00" stroke="none" d="M 0 30.015 L 0 60.029 30.250 59.765 L 60.500 59.500 60.765 29.750 L 61.030 0 30.515 0 L 0 0 0 30.015 M 0.443 30.500 C 0.443 47, 0.580 53.890, 0.748 45.812 C 0.915 37.733, 0.916 24.233, 0.748 15.812 C 0.581 7.390, 0.444 14, 0.443 30.500 M 3 30 L 3 57 30 57 L 57 57 57 30 L 57 3 30 3 L 3 3 3 30 M 7.704 14.630 C 5.931 16.403, 7.510 17, 13.973 17 L 20.945 17 21.223 31.250 C 21.454 43.127, 21.750 45.500, 23 45.500 C 24.269 45.500, 24.500 43.111, 24.500 30 L 24.500 14.500 16.454 14.213 C 12.028 14.055, 8.091 14.242, 7.704 14.630 M 35.456 15.255 C 35.173 15.990, 35.068 23.096, 35.221 31.046 L 35.500 45.500 44 45.500 L 52.500 45.500 52.500 30 L 52.500 14.500 44.234 14.209 C 38.048 13.992, 35.839 14.255, 35.456 15.255 M 39 30 L 39 43.105 44.250 42.802 L 49.500 42.500 49.500 30 L 49.500 17.500 44.250 17.198 L 39 16.895 39 30 M 28 44.500 C 28 45.333, 28.889 46, 30 46 C 31.111 46, 32 45.333, 32 44.500 C 32 43.667, 31.111 43, 30 43 C 28.889 43, 28 43.667, 28 44.500"></path>
</svg>