<svg viewBox="0 0 60 60" xmlns="http://www.w3.org/2000/svg">
	<path fill-rule="evenodd" fill="#00FF00" stroke="none" d="M 9.923 2.923 C 7.012 5.834, 7 5.896, 7 18.041 C 7 30.120, 6.972 30.268, 4.049 33.597 C -3.352 42.026, -0.136 54.491, 10.485 58.548 C 15.956 60.637, 20.774 59.903, 25.014 56.334 C 30.566 51.663, 33.806 42.176, 31.035 38.708 C 30.504 38.044, 28.704 35.866, 27.035 33.868 C 24.024 30.265, 24 30.139, 24 18.200 C 24 11.580, 23.720 5.435, 23.379 4.545 C 22.620 2.568, 17.871 0, 14.973 0 C 13.803 0, 11.531 1.315, 9.923 2.923 M 12 5 C 10.212 6.788, 10 8.333, 10 19.577 C 10 32.141, 9.997 32.157, 7.080 35.074 C 0.060 42.093, 2.948 53.235, 12.468 55.864 C 22.787 58.713, 31.560 47.744, 26.595 38.200 C 24.575 34.317, 20.382 31, 17.492 31 C 16.122 31, 15 30.550, 15 30 C 15 29.450, 16.350 29, 18 29 C 20.533 29, 21 28.611, 21 26.500 C 21 24.389, 20.533 24, 18 24 C 16.350 24, 15 23.550, 15 23 C 15 22.450, 16.350 22, 18 22 C 20.533 22, 21 21.611, 21 19.500 C 21 17.516, 20.496 17, 18.559 17 C 17.216 17, 15.840 16.550, 15.500 16 C 15.139 15.417, 16.156 15, 17.941 15 C 20.659 15, 21 14.672, 21 12.063 C 21 9.500, 20.587 9.076, 17.750 8.723 L 14.500 8.320 17.750 8.160 C 21.544 7.973, 21.896 6.741, 18.777 4.557 C 15.840 2.499, 14.407 2.593, 12 5 M 9.923 37.923 C 7.928 39.918, 7 41.848, 7 44 C 7 47.732, 11.676 53, 14.989 53 C 20.175 53, 23.922 49.177, 23.968 43.839 C 23.993 40.957, 23.345 39.627, 20.923 37.589 C 16.891 34.196, 13.548 34.298, 9.923 37.923 M 0.272 44 C 0.272 46.475, 0.467 47.487, 0.706 46.250 C 0.944 45.013, 0.944 42.987, 0.706 41.750 C 0.467 40.513, 0.272 41.525, 0.272 44"></path>
</svg>